<svg xmlns="http://www.w3.org/2000/svg" style="display: none;"><symbol id="key" viewBox="0 0 512 512"><title>key</title><g> <g> <path d="M240.954,329.111c-4.55-4.573-11.904-4.573-16.454-0.023l-43.136,43.171h-30.092c-6.435,0-11.636,5.213-11.636,11.648 v23.284h-23.273c-6.435,0-11.636,5.213-11.636,11.648v23.284H81.455c-6.423,0-11.636,5.213-11.636,11.648v30.115l-4.817,4.818 H23.273v-41.751l194.397-194.56c4.55-4.538,4.55-11.916,0.012-16.465l-3.409-3.421c-3.107-3.095-4.806-7.215-4.806-11.602v-0.047 c0-6.435-5.201-11.625-11.636-11.625c-6.435,0-11.636,5.236-11.636,11.671c0,8.297,2.525,16.209,7.215,22.842L3.409,433.896 C1.222,436.084,0,439.039,0,442.135v58.228c0,6.423,5.213,11.636,11.636,11.636h58.182c3.084,0,6.051-1.233,8.227-3.409 l11.636-11.648c2.188-2.188,3.409-5.143,3.409-8.227v-23.284h23.273c6.435,0,11.636-5.213,11.636-11.648v-23.284h23.273 c6.435,0,11.636-5.213,11.636-11.648v-23.284h23.273c3.095,0,6.051-1.233,8.227-3.409l46.545-46.58 C245.504,341.026,245.504,333.66,240.954,329.111z"/> </g> </g><g> <g> <path d="M421.318,136.959l-46.545-46.58c-13.708-13.743-37.655-13.743-51.363,0c-14.161,14.173-14.161,37.236,0,51.398 l46.545,46.58c6.854,6.865,15.977,10.647,25.681,10.647c9.705,0,18.828-3.782,25.681-10.647 C435.479,174.184,435.479,151.121,421.318,136.959z M404.864,171.88c-4.934,4.934-13.521,4.934-18.455,0l-46.545-46.58 c-5.073-5.085-5.073-13.37,0-18.467c2.467-2.467,5.737-3.828,9.228-3.828s6.761,1.361,9.228,3.828l46.545,46.58 C409.949,158.498,409.949,166.795,404.864,171.88z"/> </g> </g><g> <g> <path d="M500.364,146.187L365.545,11.263c-15.023-15.011-41.158-15.023-56.18,0L197.818,122.891 c-7.505,7.505-11.636,17.489-11.636,28.113c0,10.624,4.131,20.608,11.636,28.113l111.546,111.628l-6.842,6.854 c-3.095,3.095-7.215,4.806-11.59,4.806h-0.012c-4.387,0-8.518-1.711-11.625-4.817l-32.524-32.547c-4.55-4.55-11.904-4.55-16.454,0 l-64,64.047c-4.55,4.55-4.55,11.916,0,16.465c2.269,2.269,5.248,3.409,8.227,3.409s5.958-1.14,8.227-3.409l55.773-55.808 l24.297,24.308c7.505,7.505,17.466,11.636,28.09,11.636c0.012,0,0.023,0,0.035,0c10.589-0.012,20.538-4.154,28.009-11.636 l15.069-15.081c4.55-4.55,4.55-11.916,0-16.465L214.272,162.641c-3.119-3.107-4.817-7.238-4.817-11.636 c0-4.399,1.699-8.529,4.817-11.648L325.818,27.74c6.225-6.237,17.047-6.225,23.273,0L483.91,162.664 c3.119,3.107,4.818,7.238,4.818,11.636s-1.699,8.529-4.818,11.648L372.364,297.564c-3.119,3.119-7.238,4.829-11.636,4.829 c-6.435,0-11.636,5.213-11.636,11.648c0,6.435,5.201,11.648,11.636,11.648c10.601,0,20.585-4.131,28.09-11.648l111.546-111.628 C507.869,194.908,512,184.924,512,174.3C512,163.665,507.869,153.681,500.364,146.187z"/> </g> </g></symbol><symbol id="logout" viewBox="0 0 384 384"><title>logout</title><path d="M341.333,0H42.667C19.093,0,0,19.093,0,42.667V128h42.667V42.667h298.667v298.667H42.667V256H0v85.333 C0,364.907,19.093,384,42.667,384h298.667C364.907,384,384,364.907,384,341.333V42.667C384,19.093,364.907,0,341.333,0z"/><polygon points="151.147,268.48 181.333,298.667 288,192 181.333,85.333 151.147,115.52 206.293,170.667 0,170.667 0,213.333 206.293,213.333 "/></symbol><symbol id="face" viewBox="0 0 24 24"><title>face</title><circle cx="12" cy="6" r="4"/><path d="m15.25 12h-6.5c-2.619 0-4.75 2.131-4.75 4.75v2.5c0 .414.336.75.75.75h14.5c.414 0 .75-.336.75-.75v-2.5c0-2.619-2.131-4.75-4.75-4.75z"/><path d="m5 0h-2c-1.654 0-3 1.346-3 3v2c0 .553.448 1 1 1s1-.447 1-1v-2c0-.552.449-1 1-1h2c.552 0 1-.447 1-1s-.448-1-1-1z"/><path d="m5 22h-2c-.551 0-1-.448-1-1v-2c0-.553-.448-1-1-1s-1 .447-1 1v2c0 1.654 1.346 3 3 3h2c.552 0 1-.447 1-1s-.448-1-1-1z"/><path d="m21 0h-2c-.552 0-1 .447-1 1s.448 1 1 1h2c.551 0 1 .448 1 1v2c0 .553.448 1 1 1s1-.447 1-1v-2c0-1.654-1.346-3-3-3z"/><path d="m23 18c-.552 0-1 .447-1 1v2c0 .552-.449 1-1 1h-2c-.552 0-1 .447-1 1s.448 1 1 1h2c1.654 0 3-1.346 3-3v-2c0-.553-.448-1-1-1z"/></symbol><symbol id="unlock" viewBox="0 0 24 24"><title>unlock</title><path d="m16.68 3.03-8-3c-.12-.04-.24-.04-.36 0l-8 3c-.19.07-.32.26-.32.47v6.43c0 9.12 8.31 11.04 8.39 11.06.04.01.07.01.11.01s.07 0 .11-.01c.01 0 .17-.04.45-.13.3-1.63 1.73-2.86 3.44-2.86h1.33c1.7-1.68 3.17-4.24 3.17-8.07v-6.43c0-.21-.13-.4-.32-.47z"/><path d="m21 18c-1.302 0-2.402.839-2.816 2h-5.684c-.827 0-1.5.673-1.5 1.5v1.5c0 .552.447 1 1 1s1-.448 1-1v-1h5.184c.414 1.161 1.514 2 2.816 2 1.654 0 3-1.346 3-3s-1.346-3-3-3zm0 4c-.552 0-1-.449-1-1s.448-1 1-1 1 .449 1 1-.448 1-1 1z"/></symbol></svg>