<svg xmlns="http://www.w3.org/2000/svg" style="display: none;"><symbol id="password" viewBox="0 0 512 512"><title>password</title><path d="m489.5 443.5h-147c-12.406 0-22.5-10.093-22.5-22.5v-60c0-12.407 10.094-22.5 22.5-22.5h74.9c4.143 0 7.5 3.358 7.5 7.5s-3.357 7.5-7.5 7.5h-74.9c-4.136 0-7.5 3.364-7.5 7.5v60c0 4.136 3.364 7.5 7.5 7.5h147c4.136 0 7.5-3.364 7.5-7.5v-60c0-4.136-3.364-7.5-7.5-7.5h-42.1c-4.143 0-7.5-3.358-7.5-7.5s3.357-7.5 7.5-7.5h42.1c12.406 0 22.5 10.093 22.5 22.5v60c0 12.407-10.094 22.5-22.5 22.5zm-47.403-30.797c-2.929-2.929-2.929-7.677 0-10.606l3.597-3.597h-88.194c-4.143 0-7.5-3.358-7.5-7.5s3.357-7.5 7.5-7.5h88.193l-3.597-3.597c-2.929-2.929-2.929-7.678 0-10.606 2.931-2.93 7.679-2.929 10.607 0l16.399 16.4c2.929 2.929 2.929 7.678 0 10.606l-16.399 16.4h-.001c-2.928 2.929-7.677 2.929-10.605 0zm47.403-89.203h-378.5c-4.143 0-7.5-3.358-7.5-7.5s3.357-7.5 7.5-7.5h378.5c4.143 0 7.5 3.358 7.5 7.5s-3.357 7.5-7.5 7.5zm-408.5 0h-58.5c-4.143 0-7.5-3.358-7.5-7.5s3.357-7.5 7.5-7.5h58.5c4.143 0 7.5 3.358 7.5 7.5s-3.357 7.5-7.5 7.5zm408.5-30h-467c-12.406 0-22.5-10.093-22.5-22.5v-150c0-12.407 10.094-22.5 22.5-22.5h408.5c4.143 0 7.5 3.358 7.5 7.5s-3.357 7.5-7.5 7.5h-408.5c-4.136 0-7.5 3.364-7.5 7.5v150c0 4.136 3.364 7.5 7.5 7.5h467c4.136 0 7.5-3.364 7.5-7.5v-150c0-4.136-3.364-7.5-7.5-7.5h-28.5c-4.143 0-7.5-3.358-7.5-7.5s3.357-7.5 7.5-7.5h28.5c12.406 0 22.5 10.093 22.5 22.5v150c0 12.407-10.094 22.5-22.5 22.5zm-58.5-68.946c-4.143 0-7.5-3.358-7.5-7.5v-8.063l-6.983 4.032c-3.586 2.071-8.173.842-10.245-2.745-2.071-3.587-.842-8.174 2.745-10.245l6.983-4.033-6.983-4.032c-3.587-2.071-4.816-6.658-2.745-10.245 2.07-3.587 6.659-4.817 10.245-2.745l6.983 4.032v-8.063c0-4.142 3.357-7.5 7.5-7.5s7.5 3.358 7.5 7.5v8.063l6.983-4.032c3.586-2.072 8.173-.842 10.245 2.745 2.071 3.587.842 8.174-2.745 10.245l-6.983 4.032 6.983 4.032c3.587 2.071 4.816 6.658 2.745 10.245s-6.66 4.816-10.245 2.745l-6.983-4.032v8.063c0 4.143-3.357 7.501-7.5 7.501zm-70 0c-4.143 0-7.5-3.358-7.5-7.5v-8.063l-6.983 4.032c-3.586 2.071-8.173.842-10.245-2.745-2.071-3.587-.842-8.174 2.745-10.245l6.983-4.033-6.983-4.032c-3.587-2.071-4.816-6.658-2.745-10.245 2.069-3.587 6.659-4.817 10.245-2.745l6.983 4.032v-8.063c0-4.142 3.357-7.5 7.5-7.5s7.5 3.358 7.5 7.5v8.063l6.983-4.032c3.586-2.072 8.173-.842 10.245 2.745 2.071 3.587.842 8.174-2.745 10.245l-6.983 4.032 6.983 4.032c3.587 2.071 4.816 6.658 2.745 10.245-2.07 3.587-6.66 4.816-10.245 2.745l-6.983-4.032v8.063c0 4.143-3.357 7.501-7.5 7.501zm-70 0c-4.143 0-7.5-3.358-7.5-7.5v-8.063l-6.983 4.032c-3.586 2.071-8.173.842-10.245-2.745-2.071-3.587-.842-8.174 2.745-10.245l6.983-4.033-6.983-4.032c-3.587-2.071-4.816-6.658-2.745-10.245 2.07-3.587 6.659-4.817 10.245-2.745l6.983 4.032v-8.063c0-4.142 3.357-7.5 7.5-7.5s7.5 3.358 7.5 7.5v8.063l6.983-4.032c3.586-2.072 8.173-.842 10.245 2.745 2.071 3.587.842 8.174-2.745 10.245l-6.983 4.032 6.983 4.032c3.587 2.071 4.816 6.658 2.745 10.245s-6.66 4.816-10.245 2.745l-6.983-4.032v8.063c0 4.143-3.357 7.501-7.5 7.501zm-70 0c-4.143 0-7.5-3.358-7.5-7.5v-8.063l-6.983 4.032c-3.586 2.071-8.173.842-10.245-2.745-2.071-3.587-.842-8.174 2.745-10.245l6.983-4.033-6.983-4.032c-3.587-2.071-4.816-6.658-2.745-10.245 2.069-3.587 6.659-4.817 10.245-2.745l6.983 4.032v-8.063c0-4.142 3.357-7.5 7.5-7.5s7.5 3.358 7.5 7.5v8.063l6.983-4.032c3.586-2.072 8.173-.842 10.245 2.745 2.071 3.587.842 8.174-2.745 10.245l-6.983 4.032 6.983 4.032c3.587 2.071 4.816 6.658 2.745 10.245-2.07 3.587-6.66 4.816-10.245 2.745l-6.983-4.032v8.063c0 4.143-3.357 7.501-7.5 7.501zm-70 0c-4.143 0-7.5-3.358-7.5-7.5v-8.063l-6.983 4.032c-3.586 2.071-8.173.842-10.245-2.745-2.071-3.587-.842-8.174 2.745-10.245l6.983-4.033-6.983-4.032c-3.587-2.071-4.816-6.658-2.745-10.245 2.07-3.587 6.659-4.817 10.245-2.745l6.983 4.032v-8.063c0-4.142 3.357-7.5 7.5-7.5s7.5 3.358 7.5 7.5v8.063l6.983-4.032c3.586-2.072 8.173-.842 10.245 2.745 2.071 3.587.842 8.174-2.745 10.245l-6.983 4.032 6.983 4.032c3.587 2.071 4.816 6.658 2.745 10.245s-6.66 4.816-10.245 2.745l-6.983-4.032v8.063c0 4.143-3.357 7.501-7.5 7.501zm-70 0c-4.143 0-7.5-3.358-7.5-7.5v-8.063l-6.983 4.032c-3.586 2.071-8.173.842-10.245-2.745-2.071-3.587-.842-8.174 2.745-10.245l6.983-4.033-6.983-4.032c-3.587-2.071-4.816-6.658-2.745-10.245 2.069-3.587 6.659-4.817 10.245-2.745l6.983 4.032v-8.063c0-4.142 3.357-7.5 7.5-7.5s7.5 3.358 7.5 7.5v8.063l6.983-4.032c3.586-2.072 8.173-.842 10.245 2.745 2.071 3.587.842 8.174-2.745 10.245l-6.983 4.032 6.983 4.032c3.587 2.071 4.816 6.658 2.745 10.245-2.07 3.587-6.66 4.816-10.245 2.745l-6.983-4.032v8.063c0 4.143-3.357 7.501-7.5 7.501zm408.5-141.054h-467c-4.143 0-7.5-3.358-7.5-7.5s3.357-7.5 7.5-7.5h467c4.143 0 7.5 3.358 7.5 7.5s-3.357 7.5-7.5 7.5z"/></symbol><symbol id="notes" viewBox="0 0 512 512"><title>notes</title><path d="m301 60v-15c0-24.813-20.187-45-45-45s-45 20.187-45 45v15h-155.023v452h400.047v-452zm-60-15c0-8.271 6.729-15 15-15s15 6.729 15 15v45h55.365v40h-140.73v-40h55.365zm125.023 115v262h-220.046v-262zm60 322h-340.046v-392h69.658v40h-39.658v322h280.047v-322h-39.658v-40h69.658v392z"/><path d="m175.977 190h160.047v30h-160.047z"/><path d="m175.977 250h160.047v30h-160.047z"/></symbol></svg>